<?xml version="1.0" standalone="no"?>
<!DOCTYPE svg PUBLIC "-//W3C//DTD SVG 20010904//EN"
 "http://www.w3.org/TR/2001/REC-SVG-20010904/DTD/svg10.dtd">
<svg version="1.0" xmlns="http://www.w3.org/2000/svg"
 width="500.000000pt" height="500.000000pt" viewBox="0 0 500.000000 500.000000"
 preserveAspectRatio="xMidYMid meet">
<metadata>
Created by potrace 1.14, written by Peter Selinger 2001-2017
</metadata>
<g transform="translate(0.000000,500.000000) scale(0.100000,-0.100000)"
fill="#000000" stroke="none">
<path d="M0 2500 l0 -2500 2500 0 2500 0 0 2500 0 2500 -2500 0 -2500 0 0
-2500z m2258 1649 c78 -64 143 -150 195 -256 l39 -82 26 52 c45 94 94 161 182
250 48 48 92 87 97 87 6 0 22 -9 37 -21 l27 -21 -83 -87 c-46 -48 -103 -112
-128 -141 l-45 -55 40 33 c112 92 232 162 368 216 66 26 70 27 88 10 10 -9 19
-20 19 -24 0 -3 -26 -14 -57 -24 -146 -45 -368 -177 -443 -263 l-25 -28 25 21
c88 74 287 177 442 229 94 31 279 77 285 71 1 -1 4 -13 5 -26 3 -22 -3 -24
-97 -45 -182 -40 -342 -98 -467 -168 -88 -50 -115 -73 -43 -39 157 77 379 145
592 183 130 23 153 21 153 -10 0 -15 -10 -20 -57 -26 -114 -14 -301 -54 -417
-90 -108 -33 -270 -95 -264 -100 2 -2 50 13 108 32 196 64 482 117 675 125 80
3 80 3 80 -22 0 -25 0 -25 -120 -31 -152 -8 -317 -33 -470 -71 -142 -35 -258
-69 -252 -74 2 -2 26 3 53 11 170 49 468 94 690 102 188 7 224 2 224 -34 0
-21 -4 -24 -21 -20 -24 6 -39 -20 -19 -33 7 -4 37 -11 67 -15 42 -5 53 -10 53
-25 0 -19 12 -23 103 -36 l47 -6 0 -74 0 -74 -658 0 -659 0 -41 -39 c-28 -27
-54 -41 -81 -46 -68 -11 -118 3 -163 46 l-41 39 -654 0 -653 0 0 74 0 75 48 6
c91 12 102 16 102 35 0 14 10 20 43 25 67 10 77 15 77 36 0 16 -5 19 -20 14
-16 -5 -20 -2 -20 19 0 35 37 40 229 33 179 -7 385 -34 550 -71 122 -28 140
-30 101 -15 -125 50 -429 107 -630 117 -125 7 -125 7 -125 32 0 25 0 25 80 22
199 -9 446 -53 650 -118 149 -48 147 -47 85 -18 -141 67 -333 122 -544 155
-80 13 -146 28 -146 34 0 5 4 16 9 24 8 12 29 11 147 -8 219 -37 426 -101 594
-186 39 -19 70 -33 70 -31 0 9 -148 93 -225 128 -102 46 -211 81 -348 112 -60
13 -110 26 -112 28 -1 2 1 13 6 25 l8 21 88 -19 c244 -53 502 -169 638 -288
19 -16 15 -9 -10 17 -90 97 -279 211 -417 253 -38 11 -68 23 -68 28 0 4 6 15
13 25 12 16 17 16 87 -10 129 -46 206 -90 325 -183 l70 -56 -63 77 c-35 41
-90 102 -124 134 l-61 58 29 23 c16 13 31 23 34 23 3 0 33 -23 68 -51z m-778
-803 l0 -95 -52 -3 -53 -3 2 -580 c1 -319 5 -609 9 -645 22 -234 188 -514 409
-690 125 -99 368 -230 596 -320 l106 -42 114 47 c129 53 317 145 419 205 253
148 435 360 526 610 52 145 54 175 54 821 l0 599 -50 0 -50 0 0 95 0 95 135 0
136 0 -4 -712 c-3 -690 -4 -716 -25 -799 -70 -279 -225 -527 -440 -702 -176
-143 -421 -276 -728 -393 l-90 -35 -105 40 c-144 54 -296 122 -409 183 -352
188 -603 465 -709 784 -59 179 -61 211 -61 956 l0 678 135 0 135 0 0 -94z
m654 49 c21 -10 65 -43 97 -72 126 -117 161 -248 78 -297 -17 -10 -39 -16 -50
-13 -15 4 -19 0 -19 -24 0 -21 -12 -41 -40 -69 l-40 -40 26 -12 c30 -14 57
-61 50 -86 -4 -12 4 -22 24 -34 20 -11 33 -28 37 -48 4 -22 31 -54 95 -113 49
-45 93 -83 97 -85 15 -5 192 161 206 194 7 18 25 40 39 49 18 12 26 26 26 47
0 32 39 78 65 78 11 0 1 15 -29 45 -35 33 -46 52 -46 75 0 27 -3 30 -29 30
-16 0 -37 3 -46 6 -21 8 -45 56 -45 91 0 48 51 131 120 197 73 68 123 97 185
104 56 6 105 -33 105 -84 0 -29 3 -34 24 -34 30 0 316 -289 316 -320 0 -17 7
-20 40 -20 86 0 113 -75 65 -179 -31 -65 -142 -179 -206 -209 -92 -44 -179
-16 -179 58 0 23 -5 30 -19 30 -10 0 -29 8 -42 19 -23 18 -23 18 -51 -9 -15
-16 -28 -38 -28 -49 0 -32 -39 -61 -81 -61 -21 0 -41 5 -44 11 -4 6 -49 -32
-105 -87 -76 -74 -96 -99 -87 -108 7 -7 64 -54 127 -106 471 -386 516 -425
541 -484 29 -66 38 -176 15 -195 -21 -17 -104 1 -166 36 -25 14 -179 159 -352
331 l-307 306 -196 -190 c-396 -381 -450 -430 -507 -458 -35 -17 -75 -28 -105
-29 l-48 -2 -3 40 c-5 55 24 157 56 199 15 19 133 122 262 228 130 106 273
224 319 262 l83 69 -98 98 c-97 97 -98 98 -138 93 -32 -5 -47 -1 -68 16 -16
12 -28 31 -28 44 0 12 -11 32 -25 44 -24 21 -28 21 -48 7 -12 -8 -32 -15 -44
-15 -17 0 -23 -6 -23 -20 0 -53 -49 -100 -104 -100 -40 0 -126 51 -190 114
-67 67 -116 153 -116 206 0 68 44 109 105 98 20 -4 25 -1 25 16 0 13 51 72
147 168 114 115 154 148 174 148 23 0 25 3 21 30 -3 23 3 36 27 61 28 28 37
31 74 27 24 -3 60 -13 81 -23z m610 -1646 c32 -15 50 -59 42 -103 -6 -29 -3
-35 13 -41 31 -9 64 -71 58 -104 -4 -21 -1 -34 13 -46 11 -10 22 -26 25 -36 4
-13 16 -19 36 -19 19 0 40 -10 56 -26 22 -22 25 -32 20 -77 -8 -92 20 -87
-512 -87 -448 0 -463 1 -488 20 -55 44 -39 137 27 161 23 8 44 26 57 47 11 19
28 36 39 39 15 4 20 14 20 40 0 28 8 43 34 68 24 23 32 36 25 46 -13 21 -11
73 4 91 6 8 21 20 32 26 28 16 466 16 499 1z"/>
<path d="M2659 4013 c-13 -16 -12 -17 4 -4 9 7 17 15 17 17 0 8 -8 3 -21 -13z"/>
<path d="M1350 3804 c0 -18 10 -19 188 -20 125 -1 243 -9 356 -23 93 -12 170
-20 173 -18 14 15 -378 67 -552 74 -158 6 -165 5 -165 -13z"/>
<path d="M3325 3809 c-94 -8 -395 -56 -403 -64 -8 -7 -3 -7 172 16 112 15 219
22 353 23 177 1 193 2 193 19 0 15 -11 17 -112 16 -62 -1 -153 -5 -203 -10z"/>
<path d="M2175 3760 c11 -5 27 -9 35 -9 9 0 8 4 -5 9 -11 5 -27 9 -35 9 -9 0
-8 -4 5 -9z"/>
<path d="M1305 3730 c-38 -4 70 -7 240 -7 211 0 278 3 210 7 -121 9 -354 9
-450 0z"/>
<path d="M3210 3730 c-54 -3 44 -6 225 -7 209 0 289 3 230 8 -105 8 -319 8
-455 -1z"/>
<path d="M2462 3678 c-27 -27 -6 -68 35 -68 29 0 48 33 33 60 -12 22 -49 27
-68 8z"/>
<path d="M1080 3635 l0 -25 649 0 649 0 11 -28 c33 -79 157 -83 202 -7 l21 35
649 0 649 0 0 25 0 25 -664 0 -664 0 -7 -27 c-17 -71 -92 -97 -140 -48 -14 13
-25 36 -25 50 l0 25 -665 0 -665 0 0 -25z"/>
<path d="M1273 2713 c4 -561 7 -681 20 -747 70 -340 293 -639 627 -836 98 -58
282 -147 425 -205 161 -66 142 -66 315 7 403 171 651 339 809 548 113 150 177
287 217 462 l24 107 0 665 0 666 -70 0 -70 0 0 -34 c0 -21 6 -36 15 -40 10 -4
15 1 15 14 0 16 7 20 35 20 l35 0 0 -637 c0 -513 -3 -654 -15 -720 -56 -322
-273 -616 -594 -806 -124 -74 -287 -153 -465 -226 l-100 -41 -115 46 c-154 60
-397 181 -497 247 -271 177 -438 390 -532 679 l-26 83 -4 688 -3 687 31 0 c20
0 30 -5 30 -15 0 -8 9 -15 20 -15 16 0 20 7 20 35 l0 35 -76 0 -75 0 4 -667z"/>
<path d="M2018 3369 c-12 -6 -18 -22 -18 -44 0 -38 43 -97 131 -181 69 -66 97
-84 129 -84 64 0 69 70 9 158 -43 66 -89 107 -156 141 -46 23 -69 26 -95 10z
m115 -46 c82 -52 157 -151 157 -207 0 -65 -52 -44 -159 65 -97 99 -122 139
-101 164 16 19 52 11 103 -22z"/>
<path d="M2865 3353 c-110 -57 -213 -201 -186 -259 25 -56 68 -44 167 45 43
38 92 88 111 112 53 67 41 130 -24 129 -10 -1 -40 -13 -68 -27z m101 -17 c10
-25 -22 -70 -113 -157 -97 -93 -126 -110 -150 -86 -50 50 131 257 225 257 19
0 35 -6 38 -14z"/>
<path d="M1797 3134 c-72 -69 -136 -132 -140 -140 -5 -8 -5 -24 -2 -35 11 -34
227 -249 250 -249 12 0 73 51 153 128 108 105 132 133 132 156 0 39 -212 262
-253 265 -4 1 -67 -56 -140 -125z m267 -14 c58 -60 106 -116 106 -123 0 -7
-58 -70 -129 -141 -118 -118 -130 -127 -148 -115 -39 29 -213 217 -213 230 0
19 241 259 261 259 9 0 64 -49 123 -110z"/>
<path d="M3035 3250 c-29 -11 -231 -211 -239 -237 -4 -13 -3 -29 1 -38 13 -22
245 -255 266 -266 11 -6 23 -6 35 0 32 18 230 226 237 249 5 19 -13 42 -122
155 -70 72 -135 135 -143 138 -8 4 -24 3 -35 -1z m154 -146 c66 -69 121 -133
121 -142 0 -22 -210 -232 -231 -232 -18 0 -252 243 -257 268 -5 18 206 232
229 232 9 0 71 -57 138 -126z"/>
<path d="M1532 2908 c-35 -35 14 -144 102 -225 64 -59 108 -83 154 -83 35 0
52 16 52 50 0 31 -17 57 -84 130 -112 123 -186 166 -224 128z m84 -29 c38 -23
144 -135 181 -191 64 -96 -43 -89 -148 9 -124 116 -149 254 -33 182z"/>
<path d="M3333 2871 c-54 -44 -152 -143 -177 -181 -21 -32 -20 -63 2 -83 39
-35 111 -8 200 76 115 110 145 227 58 227 -25 0 -48 -11 -83 -39z m103 4 c4
-8 3 -30 0 -49 -13 -67 -177 -216 -238 -216 -30 0 -41 26 -23 59 36 71 201
221 242 221 8 0 16 -7 19 -15z"/>
<path d="M2065 2797 c-49 -48 -57 -80 -24 -97 26 -14 35 -7 14 10 -8 7 -15 18
-15 25 0 21 90 97 106 91 9 -3 18 -6 20 -6 2 0 4 -12 4 -27 0 -18 -16 -43 -50
-79 -27 -29 -50 -62 -50 -73 0 -26 35 -36 73 -22 25 10 33 5 139 -98 l112
-109 34 26 33 25 -100 94 c-56 52 -101 102 -101 112 0 29 -30 61 -57 61 -20 0
-24 4 -18 18 17 40 17 54 0 72 -30 33 -69 25 -120 -23z m135 -87 c12 -9 9 -16
-22 -45 -23 -21 -48 -35 -63 -35 -32 0 -32 8 6 53 31 38 52 45 79 27z m34 -52
c-4 -6 36 -52 90 -102 87 -84 112 -116 87 -116 -5 0 -55 44 -112 98 -96 92
-101 99 -88 119 7 12 17 19 21 17 5 -3 5 -10 2 -16z"/>
<path d="M2815 2816 c-21 -21 -23 -29 -15 -52 6 -15 9 -27 8 -28 -2 -1 -16 -7
-31 -14 -17 -7 -34 -27 -45 -51 -16 -37 -62 -80 -342 -320 -30 -26 -165 -136
-300 -246 -399 -323 -390 -314 -406 -432 -8 -62 -6 -63 69 -31 83 35 106 54
335 279 243 240 625 606 690 664 39 35 44 37 71 25 16 -6 39 -9 50 -5 36 11
25 48 -34 114 -47 52 -54 65 -45 81 17 31 46 24 90 -21 41 -43 49 -66 28 -87
-8 -8 -8 -12 -1 -12 19 0 35 29 29 53 -7 29 -89 107 -111 107 -9 0 -27 -11
-40 -24z m47 -133 c21 -20 38 -43 38 -50 0 -25 -40 -13 -81 24 -38 34 -39 38
-23 50 24 18 23 18 66 -24z m-90 -72 c-98 -86 -471 -444 -832 -799 -78 -77
-134 -124 -174 -144 -32 -16 -60 -27 -62 -25 -7 6 16 96 32 128 14 28 21 34
429 365 447 364 595 494 595 527 0 17 2 17 20 -4 l19 -24 -27 -24z"/>
<path d="M2566 2323 c-15 -14 -25 -30 -24 -34 6 -14 574 -585 603 -605 26 -18
135 -64 152 -64 12 0 -8 125 -25 159 -17 34 -80 90 -312 281 -276 228 -353
290 -360 290 -4 0 -19 -12 -34 -27z m341 -254 c169 -138 315 -261 325 -273 20
-23 51 -118 46 -140 -2 -10 -18 -6 -66 17 -55 26 -99 66 -352 325 -225 230
-287 299 -278 309 6 7 12 13 14 13 2 0 142 -113 311 -251z"/>
<path d="M2257 1702 c-21 -23 -21 -36 -1 -56 13 -14 49 -16 243 -16 233 0 251
3 251 40 0 9 -8 24 -18 33 -16 15 -48 17 -239 17 -200 0 -221 -2 -236 -18z
m463 -17 c26 -31 0 -35 -225 -35 -225 0 -251 4 -225 35 10 12 51 15 225 15
174 0 215 -3 225 -15z"/>
<path d="M2243 1580 c-28 -11 -57 -55 -49 -75 5 -13 48 -15 311 -15 l306 0 -3
31 c-2 24 -11 36 -38 50 -31 17 -59 19 -270 18 -129 0 -245 -4 -257 -9z m504
-21 c26 -10 43 -25 43 -41 0 -11 -568 -10 -574 1 -6 9 20 35 44 44 29 10 458
7 487 -4z"/>
<path d="M2150 1437 c-17 -9 -27 -23 -30 -47 -4 -31 -9 -35 -40 -38 -19 -2
-41 -8 -47 -14 -17 -14 -17 -53 0 -66 9 -7 161 -11 466 -13 484 -1 470 -3 471
47 0 23 -29 54 -50 54 -9 0 -6 -7 8 -20 25 -23 28 -43 10 -56 -7 -5 -209 -7
-453 -4 -430 5 -440 5 -440 25 0 25 56 37 138 29 35 -4 57 -2 57 4 0 14 -25
22 -66 22 -33 0 -35 2 -32 28 l3 27 310 5 c171 3 321 3 335 0 15 -4 31 -18 40
-38 19 -41 34 -41 26 0 -6 32 -21 47 -61 60 -11 3 -155 6 -320 7 -223 0 -306
-3 -325 -12z"/>
</g>
</svg>
